<svg xmlns="http://www.w3.org/2000/svg" width="120" height="68" viewBox="0 0 120 68"><path fill="#087205" d="M38.47 46.827c-.482.028-2.949-.267-3.562-.349-7.054-.963-14.472-2.758-20.171-7.282-2.545-2.02-3.556-5.965-1.216-8.52 4.928-5.38 12.898-7.13 19.779-8.264 1.458-.24 3.173-.481 4.64-.6.348.017 1.166.005 1.44.065-.44.085-.793.246-1.208.416-6.239 1.04-12.959 2.37-18.184 6.185-2.083 1.521-4.233 3.728-3.727 6.528.36 2 1.793 3.805 3.418 4.971 5.532 3.754 12.207 5.463 18.691 6.391l.04.029c.262.185.486.218.8.229-.06.028-.56.14-.74.201"/><path fill="#dc0100" d="M84.207 28.797c.477.002 1.17.023 1.638-.013-2.208 3.342-4.918 6.463-6.958 9.927-.254.431-.44.855-.151 1.312l-.184.246c-.925-.436-1.004-1.117-.785-2.012.139-.203.155-.565.164-.801.37-.41 1.336-1.762 1.586-2.186.15-.11.26-.167.343-.333q1.449-2.07 2.872-4.16c.323-.465 1.097-1.622 1.475-1.98"/><path fill="#dc0100" d="M34.054 39.417c2.882-1.484 4.61-4.342 6.554-6.806 1.454-1.843 3.503-4.034 5.429-5.36.074.095.152.166.157.28-2.376 2.164-3.635 3.895-5.12 6.73-1.468 2.8-3.911 4.555-6.865 5.578-.144-.093-.264-.1-.339-.188z"/><path fill="#087205" d="M64.68 42.543q.066-.008.131-.012c1.103-.086 4.039-.34 4.133 1.32.07 1.243-1.137 1.218-1.36 1.472.811.706 1.331 1.538 1.884 2.457-.51.029-.846.145-1.197-.259-.597-.86-1.005-1.52-1.855-2.146a46 46 0 0 1-1.363-.03c.013.365.043 2.078-.058 2.348-.22.23-.41.117-.615-.098-.135-.41-.136-4.356-.054-4.919.14-.146.11-.102.354-.133m.372.592c0 .557.008 1.13-.001 1.685.708-.093 1.456-.031 2.14-.09.784-.202 1.44-.776.46-1.337-.424-.243-1.292-.288-1.786-.259-.31.016-.504.025-.813.001"/><path fill="#dc0100" d="M61.656 28.785c.615.02 1.017.052 1.635-.035l-4.1 5.9c-.92 1.324-1.914 2.736-2.708 4.15-.224.4-.33.783-.173 1.23-.039.063-.106.182-.147.237-.976-.54-.92-1.224-.638-2.176.185-.18.256-.542.298-.789 1.646-2.164 3.043-4.367 4.588-6.6.421-.609.828-1.33 1.245-1.917"/><path fill="#087205" d="M79.538 43.78a2.046 2.046 0 0 1 2.446 1.535 2.066 2.066 0 0 1-1.498 2.483 2.045 2.045 0 0 1-2.483-1.526 2.066 2.066 0 0 1 1.535-2.491m.731 3.43c.45-.27.78-.538.91-1.08.088-.375.024-.77-.176-1.1-.353-.568-.767-.58-1.361-.54-.361.147-.64.405-.792.771a1.43 1.43 0 0 0 .814 1.87c.21.08.384.078.605.079"/><defs><linearGradient id="a" x1="145.159" x2="178.906" y1="122.678" y2="148.069" gradientUnits="userSpaceOnUse"><stop offset="0" stop-color="#e50300"/><stop offset="1" stop-color="#ff4435"/></linearGradient></defs><path fill="url(#a)" d="M142.159 167.549c-4.042-.447-10.405-3.62-12.157-7.199-7.365-15.042 6.534-28.304 17.696-34.831a80.8 80.8 0 0 1 44.341-10.814c2.997.114 7.842.479 10.709 1.226l-2.033.126c.502.12 1.768.35 2.102.634-.75.491-1.447.298-2.371.14-.164.164-.39.369-.519.551-19.139-3.14-36.075.467-52.079 11.75-7.829 5.52-22.684 20.233-15.667 31.33 2.036 3.219 7.73 5.297 11.495 5.9-.519.756-.674.802-1.517 1.187" transform="scale(.2174 .21935)"/><path fill="#087205" d="M87.334 43.717c1.694-.215 1.904 1.313 1.795 2.594-.035.401.183 1.18.004 1.475-.372.186-.548-.116-.777-.394-.146-.016-.47.163-.621.219-1.14.422-1.96.388-2.424-.814-.053-1.822 2.746-1.002 2.988-1.862-.203-.656-1.174-.453-1.683-.414-.248.332-.429.683-.9.564-.083-.074-.149-.112-.15-.23-.006-.852 1.249-1.063 1.768-1.138m-.582 3.505c.624-.021 1.48-.345 1.605-1.039-.105-.248-.218-.191-.46-.156-.455.051-1.527.13-1.7.611.074.326.27.437.555.584"/><path fill="#dc0100" d="M45.313 32.658c.027-.043.096-.198.122-.253.177.142.582.3.807.406 2.12 1.005 2.779 3.371 1.316 5.267-1.05 1.36-2.498 2.145-4.165 2.409-.254-.078-.267-.183-.378-.408 2.19-.55 4.426-3.246 3.864-5.58-.233-.964-.786-1.352-1.566-1.84"/><path fill="#087205" d="M98.604 43.708q.071-.008.142-.012c1.418-.099 1.967 1.075 2.051 2.309-.999.015-2.37.082-3.347.026.812 1.197 1.225 1.71 2.445.605.135-.114.168-.114.341-.168.221.049.142.003.296.177.336 1.269-2.006 1.395-2.853.907a1.78 1.78 0 0 1-.837-1.12c-.34-1.348.479-2.406 1.762-2.724m.551 1.463c.292.003.388.05.621-.077.133-.483-.856-.632-1.201-.608-.547.105-.63.26-.977.713.57-.061.98-.045 1.557-.028"/><path fill="#dc0100" d="M92.465 33.885c2.152 1.233-.854 4.297-1.631 5.583a6.5 6.5 0 0 1-.553.74c-.53.038-1.008.039-1.54.04.803-1.52 3.702-4.693 3.588-6.14l.004-.118z"/><path fill="#dc0100" d="M62.182 34.02c.5.034 1.147.1 1.632.041-.828 1.277-3.641 4.446-3.459 5.858-.066.19-.016.131-.184.226-.774-.423-1.046-1.06-.667-1.877.15-.104.177-.46.203-.63q.861-1.23 1.707-2.473c.215-.317.55-.864.768-1.145"/><path fill="#087205" d="M72.898 43.761c.579-.013 1.397.03 1.745.591.146.236.124.378-.016.587-.437.169-.62-.194-.862-.507-.482.02-.887.055-1.344.223l-.039.139c.409.56 2.78.723 2.748 1.737-.03.98-.929 1.21-1.734 1.298-.477.007-1.12-.067-1.48-.42-.267-.263-.393-.68-.077-.961.464-.08.979.755 1.51.797.364.029.835-.212.882-.597-.297-.576-2.35-.523-2.589-1.48-.22-.882.608-1.207 1.256-1.407"/><path fill="#dc0100" d="M86.341 34.303c.38-.152.702-.232 1.095-.335.114.121.086.057.086.247-.546.267-.862.577-1.323.835-.622.63-1.292 1.047-1.817 1.828-.175.105-.191.14-.303.314-.56.949-1.461 1.843-.361 2.76-.019.115-.017.193-.095.276-1.04-.358-1.602-1.294-1.35-2.381.062-.1.047-.315.049-.444l.032-.061c.746-1.383 2.525-2.594 3.987-3.04"/><path fill="#f3291b" d="M86.341 34.303c.38-.152.702-.232 1.095-.335.114.121.086.057.086.247-.546.267-.862.577-1.323.835.112-.397.342-.52.69-.71l-.065-.042c-.215.03-.275.024-.483.005"/><path fill="#dc0100" d="m100.837 34.012.055.186c-.278.25-.837.615-1.164.84-.623.66-1.102.978-1.747 1.768a.9.9 0 0 0-.344.447c-.498.755-1.121 1.426-.713 2.381.1.2.21.356.153.565-.97-.348-1.467-1.418-1.265-2.414.087-.12.19-.561.237-.73.989-1.39 2.262-2.109 3.812-2.7z"/><path fill="#f3291b" d="m100.837 34.012.055.186c-.278.25-.837.615-1.164.84l.056-.204c.12-.097.204-.138.235-.285l-.158-.195z"/><path fill="#dc0100" d="M67.114 37.09c.978-1.622 3.283-2.639 5.005-3.132l-.126.321c-1.224.74-2.121 1.501-3.02 2.614-.134.1-.185.2-.277.34-.473.723-1.31 1.884-.479 2.655l-.185.259c-1.055-.528-1.316-1.57-1.021-2.653.075-.083.085-.282.103-.404"/><path fill="#dc0100" d="M50.38 40.09c-.439-.275-.876-.68-1.005-1.198-.681-2.734 3.153-4.294 5.06-4.871.024.19.04.117-.049.276-.96.473-2.281 1.665-2.934 2.516-.152.107-.2.227-.286.39-.443.603-.96 1.264-.85 2.043.028.196.096.384.199.552z"/><path fill="#087205" d="M91.84 43.76c1.935-.094 1.895 1.332 1.875 2.871-.005.367-.01.7-.108 1.059-.265.127-.334.172-.588.003-.487-.811.479-3.26-1.159-3.222l-.153.029c-1.489.314-.39 2.315-.885 3.075-.123.189-.413.204-.64.244-.044-1.158-.024-2.797.017-3.95.322.074.49.138.801.258.244-.08.598-.255.84-.366"/><path fill="#dc0100" d="M76.863 34.587c.209-.026.482-.098.673-.035-.084.266-.348.31-.41.626-1.039.973-3.497 3.131-2.729 4.73-.055.204-.015.162-.145.3-.93-.477-1.172-1.448-.914-2.41l.04-.024c.071-.211.03-.22-.014-.472 1.28-1.394 1.81-1.929 3.499-2.715"/><path fill="#dc0100" d="m46.937 26.59.056.033c.05.036.237.181.28.196 2.853 1.666 1.958 5.077-1.102 5.39-.105-.073-.303-.164-.44-.256 2.013-1.093 2.852-3.15 1.102-4.94l.004-.012c-.196-.111-.197-.08-.252-.255.148-.146.123-.105.352-.156"/><path fill="#f3291b" d="M36.585 29.065c-1.766.67-4.955 2.722-5.023 4.935-.014.457.703.89 1.03 1.175l-.028.056c-.682-.037-1.289-.618-1.396-1.267-.467-2.813 3.382-4.847 5.518-5.33l.062.135c-.056.088-.136.199-.163.296"/><path fill="#f93d26" d="M36.686 28.633c3.725-.543 4.063 1.889 2.106 4.462-1.322 1.738-4.171 3.433-6.356 3.671a6.2 6.2 0 0 1-1.532-.013c.183-.085.217-.095.33-.26 2.953-.035 5.776-1.621 7.585-3.943.48-.617.934-1.732.795-2.516-.243-1.37-2.031-1.175-3.03-.97.028-.096.108-.207.164-.295z"/><path fill="#f93d26" d="M43.393 40.487c-.995.082-1.85.2-2.801-.25-1.209-.573-1.33-1.828-.733-2.937.777-1.337 1.77-2.28 3.253-2.774 1.977-.659 3.496.746 2.469 2.706-.072.136-.411.592-.556.63l-.055-.16c.098-.11.289-.462.373-.609a4.7 4.7 0 0 0 .323-1.258c-.432-1.264-1.53-1.249-2.73-.888-1.687.506-4.635 3.787-2.068 5.056.5.247 1.567.257 2.147.076.11.225.124.33.378.408"/><path fill="#087205" d="M94.87 42.95c.2-.112.46-.281.681-.228.114.16.079.125.08.356.017.282.029.517.079.797.284.096.536.02.689.272-.024.17-.041.175-.17.303-.22.103-.323.012-.587.01.056.69-.007 1.813.027 2.603.283.1.834.224.716.609-.23.18-.457.167-.71.15-1.357-.09-.638-2.244-.835-3.142-.043-.199-.3-.106-.479-.333-.028-.208-.042-.132.031-.306.618-.208.501-.517.478-1.091"/><path fill="#178711" d="M95.63 43.078c.018.282.03.517.08.797.284.096.536.02.689.272-.024.17-.041.175-.17.303-.22.103-.323.012-.587.01.034-.419-.095-.807-.011-1.382"/><path fill="#087205" d="M76.096 44.563c-.21-.052-.405-.072-.55-.221-.014-.214-.034-.133.064-.31.174-.083.239-.1.42-.147.147-.213-.025-1.523.752-1.142.108.238.096.852.113 1.17.302.013.629.003.675.366-.152.28-.424.253-.707.256-.012.846-.082 1.78.123 2.593.28.086.736.162.617.54-.494.384-1.448.141-1.507-.622-.065-.842.074-1.644 0-2.483"/><path fill="#178711" d="M76.895 43.913c.302.013.629.003.675.366-.152.28-.424.253-.707.256.006-.215.071-.431.032-.622"/><path fill="#dc0100" d="M64.009 37.434c-.205-1.159 1.042-3.926 2.171-3.349.619.645-1.52 3.255-2.033 3.825-.064-.111-.107-.343-.138-.476"/><path fill="#087205" d="M84.579 43.709c.181.033.295.037.431.166.086.163.173.287.16.473-.326.457-1.286-.359-1.502.782-.152.805.053 1.76-.105 2.515-.129.17-.059.117-.328.17-.09-.016-.354-.077-.364-.152-.132-1.02-.081-2.417.003-3.456.016-.196.116-.211.213-.273.243.017.127.008.348.143.029.017.15.075.166.067.341-.178.604-.348.978-.435"/><path fill="#f46b54" d="M83.718 39.953c.05.017.17.05.222.05 3.148.025 5.206-3.764 7.32-5.61.359-.313.75-.556 1.205-.508l-.132.105-.004.118c-1.622.106-4.985 6.997-8.706 6.12.078-.083.076-.16.095-.275"/><path fill="#f3291b" d="m26.842 37.495.219.05c-.138 1.91 1.597 2.411 3.155 2.53q.246.017.494.022c1.317-.004 2.1-.206 3.344-.68l-.184.234c.075.088.195.095.339.188-.81.236-2.103.663-2.925.616-1.456.367-5.405-.799-4.442-2.96"/><path fill="#f93d26" d="M30.71 40.097c1.317-.004 2.1-.206 3.344-.68l-.184.234c.075.088.195.095.339.188-.81.236-2.103.663-2.925.616.13-.144.562-.202.76-.241l-.01-.03c-.376-.017-1.012.024-1.324-.087"/><path fill="#087205" d="m70.018 43.937.775-.008c.04 1.112.05 2.677.001 3.792-.255.053-.589.146-.768-.067-.146-.542-.068-3.093-.008-3.717"/><path fill="#dc0100" d="M88.592 33.947c.48.295.873.83.505 1.383-.547.82-1.628 1.143-2.514 1.415-.195-.03-.519-.116-.64-.28 1.068-.438 2.508-1.037 2.52-2.391.018-.037.093-.095.13-.127"/><path fill="#dc0100" d="M102.249 34.025c1.746 1.52-1.116 2.358-2.215 2.737-.205-.03-.346-.15-.517-.268 1.047-.503 2.103-.901 2.532-2.08.112-.23-.047-.197.2-.389"/><path fill="#dc0100" d="M73.308 34.001c.237.205.578.476.587.81.03 1.082-1.96 1.694-2.739 1.928-.276-.02-.347-.09-.576-.254 1.149-.529 2.116-.853 2.59-2.125.042-.13.085-.232.138-.359"/><path fill="#dc0100" d="M55.742 34.009c.522.443.903.933.276 1.552-.583.576-1.521.941-2.291 1.177-.322-.04-.391-.075-.659-.244 1.105-.47 2.326-.975 2.545-2.315z"/><path fill="#dc0100" d="M93.64 35.81c.506-.63 1.654-2.265 2.568-1.747.472.719-1.694 1.803-2.222 2.107-.207-.123-.252-.125-.347-.36"/><path fill="#404a3d" d="M37.94 21.813c1.148-.175 7.513-.62 8.21-.306-.145.05-.331.078-.484.076-2.507-.033-5.027.537-7.494.71.415-.17.767-.33 1.209-.416-.275-.06-1.093-.048-1.442-.064"/><path fill="#f46b54" d="M96.924 39.634c.274.271.41.37.83.34 1.717-.118 3.093-1.277 4.225-2.486.188-.2.786-.896.951-.974l.088.045c.082.467-1.238 1.582-1.567 1.9-.979.944-2.956 2.316-4.374 1.74.057-.21-.054-.366-.153-.565"/><path fill="#dc0100" d="M26.842 37.495c.261-.44.605-.735 1.094-.83 1.507-.296.79 2.31-.34 1.572-.253-.164-.23-.611-.535-.692z"/><path fill="#f3291b" d="M46.993 26.623c.128-.052.307-.187.439-.257 1.736-.923 3.565-1.26 5.49-.873-.19.079-.216.167-.31.348-1.55-.297-3.12-.014-4.563.59-.208.087-.614.247-.777.388-.042-.015-.23-.16-.279-.196"/><path fill="#f46b54" d="M73.364 37.302c.045.251.085.26.013.472l-.04.025-.096-.028c-1.254 1.213-3.295 3.102-5.209 2.376l.185-.259c1.74.704 4.023-1.543 5.147-2.586"/><path fill="#f46b54" d="M50.515 39.798c1.746.954 4.142-1.42 5.308-2.496-.042.247-.113.608-.298.79l-.127-.033c-1.531 1.087-2.799 2.86-5.018 2.03z"/><path fill="#f93d26" d="M44.076 25.43c.649.096 2.366.713 2.861 1.16-.229.051-.204.01-.352.156.055.175.056.144.252.255l-.004.012c-.211.175-.421.352-.64.518-.004-.114-.082-.185-.156-.28.082-.088.474-.353.594-.437-1.333-.721-1.702-.773-3.169-1.066.028-.04.077-.085.113-.12.201.034.353.076.516-.031-.073-.063-.348-.113-.457-.14z"/><path fill="#f3291b" d="M45.313 32.658c-.6-.241-2.347.207-2.564-.409.285-.35 1.946-.072 2.384-.113.168-.016.44-.121.599-.183.136.092.334.183.439.255-.188.041-.6.102-.736.197-.026.055-.095.21-.122.253"/><path fill="#f46b54" d="M77.931 37.456c-.009.236-.025.598-.164.801-.705.126-1.642 2.472-3.515 1.95.13-.137.09-.095.145-.3 1.003.631 2.969-1.782 3.534-2.451"/><path fill="#f46b54" d="M64.009 37.434c.031.133.074.365.138.476-.75.864-1.852 2.27-3.058 2.386-.231.023-.71-.03-.918-.151.168-.095.118-.035.184-.226 1.175.456 3.551-1.547 3.654-2.485"/><path fill="#f3291b" d="M76.863 34.587c.487-.242 2.205-1.056 2.772-.628.18.136.143.74.225.978-.082.166-.193.223-.343.333.319-2.108-1.616-.641-2.391-.092.062-.317.326-.36.41-.626-.19-.063-.464.01-.673.035"/><path fill="#087205" d="M38.37 46.368c1.236.164 2.542.252 3.747.436l.002.175c.14.087.165.06.342.068-1.042.029-2.95-.08-3.99-.22.178-.061.679-.173.74-.201-.315-.01-.54-.044-.801-.23z"/><path fill="#f46b54" d="M78.736 40.023c1.396-.085 2.628-1.638 3.586-2.62-.002.129.013.345-.049.444-.555.118-1.537 2.441-3.721 2.422z"/><path fill="#f46b54" d="m56.31 40.03.129.004c1.042.025 2.475-1.627 3.268-2.396-.026.17-.054.526-.203.63-.953.226-1.17 2.042-3.341 1.999.041-.055.108-.174.147-.238"/><path fill="#f3291b" d="M54.881 27.004c.4.751.57 2.849-.027 3.505l-.092.003c-.124-.22.084-.935.123-1.233.085-.66-.001-1.27-.168-1.904l.076-.009.073.091c.017-.107.014-.336.015-.453"/><path fill="#f93d26" d="M52.922 25.493c.785.266 1.598.713 1.96 1.51-.002.118.001.347-.016.454l-.073-.09-.076.008-.091-.157c-.515-.86-1.087-1.143-2.014-1.377.094-.18.12-.27.31-.348"/><path fill="#f46b54" d="M96.049 37.055c-.046.169-.15.61-.237.73l-.03-.075c-.18-.056-.82.398-1.06.48-.218.074-.395.138-.623.196l-.248-.065c-.357-.096-.393-.147-.576-.464l.204-.206c.49 1.006 2.036-.147 2.57-.596"/><path fill="#f3291b" d="M68.974 36.893c.25.029 1.287-.312 1.606-.408.23.164.3.234.576.254-1.184.381-1.258.406-2.46.493.092-.14.143-.24.278-.339"/><path fill="#f3291b" d="M85.943 36.465c.121.164.445.25.64.28-.963.267-1.508.473-2.504.447.112-.173.128-.209.303-.314.317.005 1.239-.3 1.561-.413"/><path fill="#f3291b" d="M97.981 36.806c.165.119 1.292-.243 1.536-.312.171.118.312.238.517.268-.637.176-1.282.359-1.94.43-.154.017-.308.02-.457.061a.9.9 0 0 1 .344-.447"/><path fill="#f3291b" d="M51.452 36.813c.219.1 1.316-.236 1.616-.32.268.17.337.204.659.245-.885.22-1.644.436-2.561.464.087-.162.134-.282.286-.389"/><path fill="#191618" fill-opacity=".969" d="M42.117 46.804c.475.017 3.744.21 3.887.337-.527.157-2.728-.094-3.543-.094-.177-.007-.202.019-.342-.068z"/><path fill="#f3291b" d="M93.64 35.81c.094.235.14.237.346.36-.652.443-.584.733-.507 1.48l-.204.207c-.11-.401-.114-.893-.125-1.31.13-.259.319-.501.49-.737"/><path fill="#178711" d="M70.037 42.518c.324-.004.477-.046.71.151.08.19.024.502.002.718-.63-.074-.91-.13-.712-.87"/><path fill="#191618" fill-opacity=".949" d="m89.6 45.272.088.071c.164.312.095 1.704.05 2.081l-.109-.086c-.139-.302-.075-1.706-.028-2.066"/><path fill="#b44041" d="M100.837 34.012c.499-.131.937-.296 1.412.013-.247.192-.088.16-.2.388-.136-.383-.846-.347-1.157-.215z"/><path fill="#b44041" d="M72.12 33.958c.463-.093.742-.131 1.188.043-.053.127-.096.229-.139.359-.15-.462-.857-.185-1.176-.081z"/><path fill="#b44041" d="M54.435 34.02c.332-.156 1.006-.255 1.307-.011l-.129.17c-.463-.136-.782-.054-1.227.118.088-.16.073-.086.05-.276"/><path fill="#f93d26" fill-opacity=".941" d="M67.01 37.494c-.324-.11-.698.593-1.068.635l-.041-.073c.143-.352.873-.752 1.213-.966-.018.122-.028.321-.103.404"/><path fill="#b44041" d="M87.436 33.968c.359-.086.806-.214 1.156-.02-.036.031-.111.089-.13.126-.284.03-.676.057-.94.14 0-.189.028-.125-.086-.246"/><path fill="#191618" fill-opacity=".816" d="M96.412 44.749c.056.069.04.063.066.158-.205.458-.221.764-.25 1.25-.254-.395-.166-1.085.184-1.408"/><path fill="#191618" fill-opacity=".553" d="m99.204 46.453.08-.02.034.069-.057.08c-.256.113-.498.113-.775.132-.08-.037-.066-.037-.134-.1.124-.101.597-.078.852-.161"/></svg>